<svg xmlns="http://www.w3.org/2000/svg" xmlns:xlink="http://www.w3.org/1999/xlink" version="1.1" class="marks" width="446" height="345" viewBox="0 0 446 345"><rect width="446" height="345" fill="white"/><g fill="none" stroke-miterlimit="10" transform="translate(41,41)"><g class="mark-group role-frame root" role="graphics-object" aria-roledescription="group mark container"><g transform="translate(0,0)"><path class="background" aria-hidden="true" d="M0,0h400v250h-400Z"/><g><g class="mark-group role-axis" aria-hidden="true"><g transform="translate(0.5,0.5)"><path class="background" aria-hidden="true" d="M0,0h0v0h0Z" pointer-events="none"/><g><g class="mark-rule role-axis-grid" pointer-events="none"><line transform="translate(0,250)" x2="400" y2="0" stroke="#ddd" stroke-width="1" opacity="1"/><line transform="translate(0,208)" x2="400" y2="0" stroke="#ddd" stroke-width="1" opacity="1"/><line transform="translate(0,167)" x2="400" y2="0" stroke="#ddd" stroke-width="1" opacity="1"/><line transform="translate(0,125)" x2="400" y2="0" stroke="#ddd" stroke-width="1" opacity="1"/><line transform="translate(0,83)" x2="400" y2="0" stroke="#ddd" stroke-width="1" opacity="1"/><line transform="translate(0,42)" x2="400" y2="0" stroke="#ddd" stroke-width="1" opacity="1"/><line transform="translate(0,0)" x2="400" y2="0" stroke="#ddd" stroke-width="1" opacity="1"/></g></g><path class="foreground" aria-hidden="true" d="" pointer-events="none" display="none"/></g></g><g class="mark-group role-axis" role="graphics-symbol" aria-roledescription="axis" aria-label="X-axis for a discrete scale with 5 values: 1 star, 2 stars, 3 stars, 4 stars, 5 stars"><g transform="translate(0.5,250.5)"><path class="background" aria-hidden="true" d="M0,0h0v0h0Z" pointer-events="none"/><g><g class="mark-rule role-axis-tick" pointer-events="none"><line transform="translate(40,0)" x2="0" y2="5" stroke="#888" stroke-width="1" opacity="1"/><line transform="translate(120,0)" x2="0" y2="5" stroke="#888" stroke-width="1" opacity="1"/><line transform="translate(200,0)" x2="0" y2="5" stroke="#888" stroke-width="1" opacity="1"/><line transform="translate(280,0)" x2="0" y2="5" stroke="#888" stroke-width="1" opacity="1"/><line transform="translate(360,0)" x2="0" y2="5" stroke="#888" stroke-width="1" opacity="1"/></g><g class="mark-text role-axis-label" pointer-events="none"><text text-anchor="end" transform="translate(39.5,7) rotate(270) translate(0,4)" font-family="Tahoma, sans-serif" font-size="14px" fill="#000" opacity="1">1 star</text><text text-anchor="end" transform="translate(119.5,7) rotate(270) translate(0,4)" font-family="Tahoma, sans-serif" font-size="14px" fill="#000" opacity="1">2 stars</text><text text-anchor="end" transform="translate(199.5,7) rotate(270) translate(0,4)" font-family="Tahoma, sans-serif" font-size="14px" fill="#000" opacity="1">3 stars</text><text text-anchor="end" transform="translate(279.5,7) rotate(270) translate(0,4)" font-family="Tahoma, sans-serif" font-size="14px" fill="#000" opacity="1">4 stars</text><text text-anchor="end" transform="translate(359.5,7) rotate(270) translate(0,4)" font-family="Tahoma, sans-serif" font-size="14px" fill="#000" opacity="1">5 stars</text></g><g class="mark-rule role-axis-domain" pointer-events="none"><line transform="translate(0,0)" x2="400" y2="0" stroke="#888" stroke-width="1" opacity="1"/></g></g><path class="foreground" aria-hidden="true" d="" pointer-events="none" display="none"/></g></g><g class="mark-group role-axis" role="graphics-symbol" aria-roledescription="axis" aria-label="Y-axis titled '% of Systems' for a linear scale with values from 0 to 30"><g transform="translate(0.5,0.5)"><path class="background" aria-hidden="true" d="M0,0h0v0h0Z" pointer-events="none"/><g><g class="mark-rule role-axis-tick" pointer-events="none"><line transform="translate(0,250)" x2="-5" y2="0" stroke="#888" stroke-width="1" opacity="1"/><line transform="translate(0,208)" x2="-5" y2="0" stroke="#888" stroke-width="1" opacity="1"/><line transform="translate(0,167)" x2="-5" y2="0" stroke="#888" stroke-width="1" opacity="1"/><line transform="translate(0,125)" x2="-5" y2="0" stroke="#888" stroke-width="1" opacity="1"/><line transform="translate(0,83)" x2="-5" y2="0" stroke="#888" stroke-width="1" opacity="1"/><line transform="translate(0,42)" x2="-5" y2="0" stroke="#888" stroke-width="1" opacity="1"/><line transform="translate(0,0)" x2="-5" y2="0" stroke="#888" stroke-width="1" opacity="1"/></g><g class="mark-text role-axis-label" pointer-events="none"><text text-anchor="end" transform="translate(-7,253)" font-family="Tahoma, sans-serif" font-size="10px" fill="#000" opacity="1">0</text><text text-anchor="end" transform="translate(-7,211.33333333333334)" font-family="Tahoma, sans-serif" font-size="10px" fill="#000" opacity="1">5</text><text text-anchor="end" transform="translate(-7,169.66666666666669)" font-family="Tahoma, sans-serif" font-size="10px" fill="#000" opacity="1">10</text><text text-anchor="end" transform="translate(-7,128)" font-family="Tahoma, sans-serif" font-size="10px" fill="#000" opacity="1">15</text><text text-anchor="end" transform="translate(-7,86.33333333333334)" font-family="Tahoma, sans-serif" font-size="10px" fill="#000" opacity="1">20</text><text text-anchor="end" transform="translate(-7,44.66666666666666)" font-family="Tahoma, sans-serif" font-size="10px" fill="#000" opacity="1">25</text><text text-anchor="end" transform="translate(-7,3)" font-family="Tahoma, sans-serif" font-size="10px" fill="#000" opacity="1">30</text></g><g class="mark-rule role-axis-domain" pointer-events="none"><line transform="translate(0,250)" x2="0" y2="-250" stroke="#888" stroke-width="1" opacity="1"/></g><g class="mark-text role-axis-title" pointer-events="none"><text text-anchor="middle" transform="translate(-21.91796875,125) rotate(-90) translate(0,-3)" font-family="Tahoma, sans-serif" font-size="14px" font-weight="bold" fill="#000" opacity="1">% of Systems</text></g></g><path class="foreground" aria-hidden="true" d="" pointer-events="none" display="none"/></g></g><g class="mark-group role-scope" role="graphics-object" aria-roledescription="group mark container"><g transform="translate(4,208.33333333333334)"><path class="background" aria-hidden="true" d="M4,0L68,0C70.207660097976,0,72,1.792339902024,72,4L72,41.66666666666666C72,41.66666666666666,72,41.66666666666666,72,41.66666666666666L0,41.66666666666666C0,41.66666666666666,0,41.66666666666666,0,41.66666666666666L0,4C0,1.792339902024,1.792339902024,0,4,0Z"/><g clip-path="url(#clip1)"><g class="mark-group role-scope" role="graphics-object" aria-roledescription="group mark container"><g transform="translate(0,-208.33333333333334)"><path class="background" aria-hidden="true" d="M0,0h72v0h-72Z"/><g><g class="mark-rect role-mark marks" role="graphics-object" aria-roledescription="rect mark container"><path aria-label="stars: 1 star; % of Systems: 5" role="graphics-symbol" aria-roledescription="bar" d="M0,208.33333333333334h72v41.66666666666666h-72Z" fill="#d32f2f"/></g></g><path class="foreground" aria-hidden="true" d="" display="none"/></g></g></g><path class="foreground" aria-hidden="true" d="" display="none"/></g><g transform="translate(84,0)"><path class="background" aria-hidden="true" d="M4,0L68,0C70.207660097976,0,72,1.792339902024,72,4L72,250C72,250,72,250,72,250L0,250C0,250,0,250,0,250L0,4C0,1.792339902024,1.792339902024,0,4,0Z"/><g clip-path="url(#clip2)"><g class="mark-group role-scope" role="graphics-object" aria-roledescription="group mark container"><g transform="translate(0,0)"><path class="background" aria-hidden="true" d="M0,0h72v0h-72Z"/><g><g class="mark-rect role-mark marks" role="graphics-object" aria-roledescription="rect mark container"><path aria-label="stars: 2 stars; % of Systems: 30" role="graphics-symbol" aria-roledescription="bar" d="M0,0h72v250h-72Z" fill="#ffc107"/></g></g><path class="foreground" aria-hidden="true" d="" display="none"/></g></g></g><path class="foreground" aria-hidden="true" d="" display="none"/></g><g transform="translate(164,0)"><path class="background" aria-hidden="true" d="M4,0L68,0C70.207660097976,0,72,1.792339902024,72,4L72,250C72,250,72,250,72,250L0,250C0,250,0,250,0,250L0,4C0,1.792339902024,1.792339902024,0,4,0Z"/><g clip-path="url(#clip3)"><g class="mark-group role-scope" role="graphics-object" aria-roledescription="group mark container"><g transform="translate(0,0)"><path class="background" aria-hidden="true" d="M0,0h72v0h-72Z"/><g><g class="mark-rect role-mark marks" role="graphics-object" aria-roledescription="rect mark container"><path aria-label="stars: 3 stars; % of Systems: 30" role="graphics-symbol" aria-roledescription="bar" d="M0,0h72v250h-72Z" fill="#81c784"/></g></g><path class="foreground" aria-hidden="true" d="" display="none"/></g></g></g><path class="foreground" aria-hidden="true" d="" display="none"/></g><g transform="translate(244,0)"><path class="background" aria-hidden="true" d="M4,0L68,0C70.207660097976,0,72,1.792339902024,72,4L72,250C72,250,72,250,72,250L0,250C0,250,0,250,0,250L0,4C0,1.792339902024,1.792339902024,0,4,0Z"/><g clip-path="url(#clip4)"><g class="mark-group role-scope" role="graphics-object" aria-roledescription="group mark container"><g transform="translate(0,0)"><path class="background" aria-hidden="true" d="M0,0h72v0h-72Z"/><g><g class="mark-rect role-mark marks" role="graphics-object" aria-roledescription="rect mark container"><path aria-label="stars: 4 stars; % of Systems: 30" role="graphics-symbol" aria-roledescription="bar" d="M0,0h72v250h-72Z" fill="#2D6E2A"/></g></g><path class="foreground" aria-hidden="true" d="" display="none"/></g></g></g><path class="foreground" aria-hidden="true" d="" display="none"/></g><g transform="translate(324,208.33333333333334)"><path class="background" aria-hidden="true" d="M4,0L68,0C70.207660097976,0,72,1.792339902024,72,4L72,41.66666666666666C72,41.66666666666666,72,41.66666666666666,72,41.66666666666666L0,41.66666666666666C0,41.66666666666666,0,41.66666666666666,0,41.66666666666666L0,4C0,1.792339902024,1.792339902024,0,4,0Z"/><g clip-path="url(#clip5)"><g class="mark-group role-scope" role="graphics-object" aria-roledescription="group mark container"><g transform="translate(0,-208.33333333333334)"><path class="background" aria-hidden="true" d="M0,0h72v0h-72Z"/><g><g class="mark-rect role-mark marks" role="graphics-object" aria-roledescription="rect mark container"><path aria-label="stars: 5 stars; % of Systems: 5" role="graphics-symbol" aria-roledescription="bar" d="M0,208.33333333333334h72v41.66666666666666h-72Z" fill="#019546"/></g></g><path class="foreground" aria-hidden="true" d="" display="none"/></g></g></g><path class="foreground" aria-hidden="true" d="" display="none"/></g></g><g class="mark-group role-title"><g transform="translate(200,-36)"><path class="background" aria-hidden="true" d="M0,0h0v0h0Z" pointer-events="none"/><g><g class="mark-text role-title-text" role="graphics-symbol" aria-roledescription="title" aria-label="Title text 'SIG Star Rating Calibration'" pointer-events="none"><text text-anchor="middle" transform="translate(0,10)" font-family="Tahoma, sans-serif" font-size="13px" font-weight="bold" fill="#000" opacity="1">SIG Star Rating Calibration</text></g><g class="mark-text role-title-subtitle" role="graphics-symbol" aria-roledescription="subtitle" aria-label="Subtitle text 'Source: Baggen et al. 2012, Industry benchmark distribution'" pointer-events="none"><text text-anchor="middle" transform="translate(0,25)" font-family="Tahoma, sans-serif" font-size="12px" fill="#666" opacity="1">Source: Baggen et al. 2012, Industry benchmark distribution</text></g></g><path class="foreground" aria-hidden="true" d="" pointer-events="none" display="none"/></g></g></g><path class="foreground" aria-hidden="true" d="" display="none"/></g></g></g><defs><clipPath id="clip1"><path d="M4,0L68,0C70.207660097976,0,72,1.792339902024,72,4L72,41.66666666666666C72,41.66666666666666,72,41.66666666666666,72,41.66666666666666L0,41.66666666666666C0,41.66666666666666,0,41.66666666666666,0,41.66666666666666L0,4C0,1.792339902024,1.792339902024,0,4,0Z"/></clipPath><clipPath id="clip2"><path d="M4,0L68,0C70.207660097976,0,72,1.792339902024,72,4L72,250C72,250,72,250,72,250L0,250C0,250,0,250,0,250L0,4C0,1.792339902024,1.792339902024,0,4,0Z"/></clipPath><clipPath id="clip3"><path d="M4,0L68,0C70.207660097976,0,72,1.792339902024,72,4L72,250C72,250,72,250,72,250L0,250C0,250,0,250,0,250L0,4C0,1.792339902024,1.792339902024,0,4,0Z"/></clipPath><clipPath id="clip4"><path d="M4,0L68,0C70.207660097976,0,72,1.792339902024,72,4L72,250C72,250,72,250,72,250L0,250C0,250,0,250,0,250L0,4C0,1.792339902024,1.792339902024,0,4,0Z"/></clipPath><clipPath id="clip5"><path d="M4,0L68,0C70.207660097976,0,72,1.792339902024,72,4L72,41.66666666666666C72,41.66666666666666,72,41.66666666666666,72,41.66666666666666L0,41.66666666666666C0,41.66666666666666,0,41.66666666666666,0,41.66666666666666L0,4C0,1.792339902024,1.792339902024,0,4,0Z"/></clipPath></defs></svg>