<svg xmlns="http://www.w3.org/2000/svg" xmlns:xlink="http://www.w3.org/1999/xlink" version="1.1" class="marks" width="552" height="356" viewBox="0 0 552 356"><rect width="552" height="356" fill="white"/><g fill="none" stroke-miterlimit="10" transform="translate(146,36)"><g class="mark-group role-frame root" role="graphics-object" aria-roledescription="group mark container"><g transform="translate(0,0)"><path class="background" aria-hidden="true" d="M0,0h400v280h-400Z"/><g><g class="mark-group role-axis" aria-hidden="true"><g transform="translate(0.5,280.5)"><path class="background" aria-hidden="true" d="M0,0h0v0h0Z" pointer-events="none"/><g><g class="mark-rule role-axis-grid" pointer-events="none"><line transform="translate(0,0)" x2="0" y2="-280" stroke="#ddd" stroke-width="1" opacity="1"/><line transform="translate(44,0)" x2="0" y2="-280" stroke="#ddd" stroke-width="1" opacity="1"/><line transform="translate(89,0)" x2="0" y2="-280" stroke="#ddd" stroke-width="1" opacity="1"/><line transform="translate(133,0)" x2="0" y2="-280" stroke="#ddd" stroke-width="1" opacity="1"/><line transform="translate(178,0)" x2="0" y2="-280" stroke="#ddd" stroke-width="1" opacity="1"/><line transform="translate(222,0)" x2="0" y2="-280" stroke="#ddd" stroke-width="1" opacity="1"/><line transform="translate(267,0)" x2="0" y2="-280" stroke="#ddd" stroke-width="1" opacity="1"/><line transform="translate(311,0)" x2="0" y2="-280" stroke="#ddd" stroke-width="1" opacity="1"/><line transform="translate(356,0)" x2="0" y2="-280" stroke="#ddd" stroke-width="1" opacity="1"/><line transform="translate(400,0)" x2="0" y2="-280" stroke="#ddd" stroke-width="1" opacity="1"/></g></g><path class="foreground" aria-hidden="true" d="" pointer-events="none" display="none"/></g></g><g class="mark-group role-axis" role="graphics-symbol" aria-roledescription="axis" aria-label="X-axis titled 'Propagation Cost (%)' for a linear scale with values from 0 to 18"><g transform="translate(0.5,280.5)"><path class="background" aria-hidden="true" d="M0,0h0v0h0Z" pointer-events="none"/><g><g class="mark-rule role-axis-tick" pointer-events="none"><line transform="translate(0,0)" x2="0" y2="5" stroke="#888" stroke-width="1" opacity="1"/><line transform="translate(44,0)" x2="0" y2="5" stroke="#888" stroke-width="1" opacity="1"/><line transform="translate(89,0)" x2="0" y2="5" stroke="#888" stroke-width="1" opacity="1"/><line transform="translate(133,0)" x2="0" y2="5" stroke="#888" stroke-width="1" opacity="1"/><line transform="translate(178,0)" x2="0" y2="5" stroke="#888" stroke-width="1" opacity="1"/><line transform="translate(222,0)" x2="0" y2="5" stroke="#888" stroke-width="1" opacity="1"/><line transform="translate(267,0)" x2="0" y2="5" stroke="#888" stroke-width="1" opacity="1"/><line transform="translate(311,0)" x2="0" y2="5" stroke="#888" stroke-width="1" opacity="1"/><line transform="translate(356,0)" x2="0" y2="5" stroke="#888" stroke-width="1" opacity="1"/><line transform="translate(400,0)" x2="0" y2="5" stroke="#888" stroke-width="1" opacity="1"/></g><g class="mark-text role-axis-label" pointer-events="none"><text text-anchor="start" transform="translate(0,15)" font-family="Tahoma, sans-serif" font-size="10px" fill="#000" opacity="1">0</text><text text-anchor="middle" transform="translate(44.44444444444444,15)" font-family="Tahoma, sans-serif" font-size="10px" fill="#000" opacity="1">2</text><text text-anchor="middle" transform="translate(88.88888888888889,15)" font-family="Tahoma, sans-serif" font-size="10px" fill="#000" opacity="1">4</text><text text-anchor="middle" transform="translate(133.33333333333331,15)" font-family="Tahoma, sans-serif" font-size="10px" fill="#000" opacity="1">6</text><text text-anchor="middle" transform="translate(177.77777777777777,15)" font-family="Tahoma, sans-serif" font-size="10px" fill="#000" opacity="1">8</text><text text-anchor="middle" transform="translate(222.22222222222223,15)" font-family="Tahoma, sans-serif" font-size="10px" fill="#000" opacity="1">10</text><text text-anchor="middle" transform="translate(266.66666666666663,15)" font-family="Tahoma, sans-serif" font-size="10px" fill="#000" opacity="1">12</text><text text-anchor="middle" transform="translate(311.11111111111114,15)" font-family="Tahoma, sans-serif" font-size="10px" fill="#000" opacity="1">14</text><text text-anchor="middle" transform="translate(355.55555555555554,15)" font-family="Tahoma, sans-serif" font-size="10px" fill="#000" opacity="1">16</text><text text-anchor="end" transform="translate(400,15)" font-family="Tahoma, sans-serif" font-size="10px" fill="#000" opacity="1">18</text></g><g class="mark-rule role-axis-domain" pointer-events="none"><line transform="translate(0,0)" x2="400" y2="0" stroke="#888" stroke-width="1" opacity="1"/></g><g class="mark-text role-axis-title" pointer-events="none"><text text-anchor="middle" transform="translate(200,32)" font-family="Tahoma, sans-serif" font-size="14px" font-weight="bold" fill="#000" opacity="1">Propagation Cost (%)</text></g></g><path class="foreground" aria-hidden="true" d="" pointer-events="none" display="none"/></g></g><g class="mark-group role-axis" role="graphics-symbol" aria-roledescription="axis" aria-label="Y-axis for a discrete scale with 3 values: Mozilla v1 (1998), Linux v2.1.105, Mozilla redesign (1998)"><g transform="translate(0.5,0.5)"><path class="background" aria-hidden="true" d="M0,0h0v0h0Z" pointer-events="none"/><g><g class="mark-rule role-axis-tick" pointer-events="none"><line transform="translate(0,46)" x2="-5" y2="0" stroke="#888" stroke-width="1" opacity="1"/><line transform="translate(0,140)" x2="-5" y2="0" stroke="#888" stroke-width="1" opacity="1"/><line transform="translate(0,233)" x2="-5" y2="0" stroke="#888" stroke-width="1" opacity="1"/></g><g class="mark-text role-axis-label" pointer-events="none"><text text-anchor="end" transform="translate(-7,50.166666666666686)" font-family="Tahoma, sans-serif" font-size="13px" fill="#000" opacity="1">Mozilla v1 (1998)</text><text text-anchor="end" transform="translate(-7,143.5)" font-family="Tahoma, sans-serif" font-size="13px" fill="#000" opacity="1">Linux v2.1.105</text><text text-anchor="end" transform="translate(-7,236.83333333333334)" font-family="Tahoma, sans-serif" font-size="13px" fill="#000" opacity="1">Mozilla redesign (1998)</text></g><g class="mark-rule role-axis-domain" pointer-events="none"><line transform="translate(0,0)" x2="0" y2="280" stroke="#888" stroke-width="1" opacity="1"/></g></g><path class="foreground" aria-hidden="true" d="" pointer-events="none" display="none"/></g></g><g class="mark-group role-scope" role="graphics-object" aria-roledescription="group mark container"><g transform="translate(0,4.666666666666686)"><path class="background" aria-hidden="true" d="M4,0L381.5555555555556,0C383.7632156535316,0,385.5555555555556,1.792339902024,385.5555555555556,4L385.5555555555556,84C385.5555555555556,84,385.5555555555556,84,385.5555555555556,84L0,84C0,84,0,84,0,84L0,4C0,1.792339902024,1.792339902024,0,4,0Z"/><g clip-path="url(#clip1)"><g class="mark-group role-scope" role="graphics-object" aria-roledescription="group mark container"><g transform="translate(0,0)"><path class="background" aria-hidden="true" d="M0,0h0v84h0Z"/><g><g class="mark-rect role-mark marks" role="graphics-object" aria-roledescription="rect mark container"><path aria-label="Propagation Cost (%): 17.35; system: Mozilla v1 (1998)" role="graphics-symbol" aria-roledescription="bar" d="M0,0h385.5555555555556v84h-385.5555555555556Z" fill="#d32f2f"/></g></g><path class="foreground" aria-hidden="true" d="" display="none"/></g></g></g><path class="foreground" aria-hidden="true" d="" display="none"/></g><g transform="translate(0,98.00000000000001)"><path class="background" aria-hidden="true" d="M4,0L125.33333333333334,0C127.54099343130935,0,129.33333333333334,1.792339902024,129.33333333333334,4L129.33333333333334,84C129.33333333333334,84,129.33333333333334,84,129.33333333333334,84L0,84C0,84,0,84,0,84L0,4C0,1.792339902024,1.792339902024,0,4,0Z"/><g clip-path="url(#clip2)"><g class="mark-group role-scope" role="graphics-object" aria-roledescription="group mark container"><g transform="translate(0,0)"><path class="background" aria-hidden="true" d="M0,0h0v84h0Z"/><g><g class="mark-rect role-mark marks" role="graphics-object" aria-roledescription="rect mark container"><path aria-label="Propagation Cost (%): 5.82; system: Linux v2.1.105" role="graphics-symbol" aria-roledescription="bar" d="M0,0h129.33333333333334v84h-129.33333333333334Z" fill="#019546"/></g></g><path class="foreground" aria-hidden="true" d="" display="none"/></g></g></g><path class="foreground" aria-hidden="true" d="" display="none"/></g><g transform="translate(0,191.33333333333334)"><path class="background" aria-hidden="true" d="M4,0L57.77777777777778,0C59.98543787575378,0,61.77777777777778,1.792339902024,61.77777777777778,4L61.77777777777778,84C61.77777777777778,84,61.77777777777778,84,61.77777777777778,84L0,84C0,84,0,84,0,84L0,4C0,1.792339902024,1.792339902024,0,4,0Z"/><g clip-path="url(#clip3)"><g class="mark-group role-scope" role="graphics-object" aria-roledescription="group mark container"><g transform="translate(0,0)"><path class="background" aria-hidden="true" d="M0,0h0v84h0Z"/><g><g class="mark-rect role-mark marks" role="graphics-object" aria-roledescription="rect mark container"><path aria-label="Propagation Cost (%): 2.78; system: Mozilla redesign (1998)" role="graphics-symbol" aria-roledescription="bar" d="M0,0h61.77777777777778v84h-61.77777777777778Z" fill="#81c784"/></g></g><path class="foreground" aria-hidden="true" d="" display="none"/></g></g></g><path class="foreground" aria-hidden="true" d="" display="none"/></g></g><g class="mark-group role-title"><g transform="translate(200,-31)"><path class="background" aria-hidden="true" d="M0,0h0v0h0Z" pointer-events="none"/><g><g class="mark-text role-title-text" role="graphics-symbol" aria-roledescription="title" aria-label="Title text 'Propagation Cost: Mozilla vs Linux'" pointer-events="none"><text text-anchor="middle" transform="translate(0,10)" font-family="Tahoma, sans-serif" font-size="13px" font-weight="bold" fill="#000" opacity="1">Propagation Cost: Mozilla vs Linux</text></g><g class="mark-text role-title-subtitle" role="graphics-symbol" aria-roledescription="subtitle" aria-label="Subtitle text 'Source: MacCormack et al. 2006'" pointer-events="none"><text text-anchor="middle" transform="translate(0,25)" font-family="Tahoma, sans-serif" font-size="12px" fill="#666" opacity="1">Source: MacCormack et al. 2006</text></g></g><path class="foreground" aria-hidden="true" d="" pointer-events="none" display="none"/></g></g></g><path class="foreground" aria-hidden="true" d="" display="none"/></g></g></g><defs><clipPath id="clip1"><path d="M4,0L381.5555555555556,0C383.7632156535316,0,385.5555555555556,1.792339902024,385.5555555555556,4L385.5555555555556,84C385.5555555555556,84,385.5555555555556,84,385.5555555555556,84L0,84C0,84,0,84,0,84L0,4C0,1.792339902024,1.792339902024,0,4,0Z"/></clipPath><clipPath id="clip2"><path d="M4,0L125.33333333333334,0C127.54099343130935,0,129.33333333333334,1.792339902024,129.33333333333334,4L129.33333333333334,84C129.33333333333334,84,129.33333333333334,84,129.33333333333334,84L0,84C0,84,0,84,0,84L0,4C0,1.792339902024,1.792339902024,0,4,0Z"/></clipPath><clipPath id="clip3"><path d="M4,0L57.77777777777778,0C59.98543787575378,0,61.77777777777778,1.792339902024,61.77777777777778,4L61.77777777777778,84C61.77777777777778,84,61.77777777777778,84,61.77777777777778,84L0,84C0,84,0,84,0,84L0,4C0,1.792339902024,1.792339902024,0,4,0Z"/></clipPath></defs></svg>